<svg xmlns="http://www.w3.org/2000/svg" viewBox="0 0 64 64"><g id="_03-light_bulbs" data-name="03-light bulbs"><path d="M44.29,43.09a.689.689,0,0,0-.13.11L44,43H19.6A25.633,25.633,0,0,1,9,24C9,9,19.3,1,32,1S55,9,55,24A25.663,25.663,0,0,1,44.29,43.09Z" style="fill:#b4d3e0"/><path d="M19.6,43H44l.16.2a3.908,3.908,0,0,0-1.4,2.5L42,51s0,.5-1.25,1S37,53,32,53c-5.31,0-7.8-.56-8.97-1.09C22,51.44,22,51,22,51l-.76-5.3a3.952,3.952,0,0,0-1.53-2.61A1.063,1.063,0,0,1,19.6,43Z" style="fill:#a4c9d6"/><path d="M32.127,50c-5.621,0-8.257-.56-9.5-1.09a1.988,1.988,0,0,1-1.04-.761L22,51s0,.44,1.03.91C24.2,52.44,26.69,53,32,53c5,0,7.5-.5,8.75-1S42,51,42,51l.361-2.515A3.557,3.557,0,0,1,41.39,49C40.067,49.5,37.42,50,32.127,50Z" style="fill:#8dbbc9"/><path d="M32,1C19.523,1,9.37,8.727,9.017,23.222,9.2,29.746,17.171,35,27,35H37c9.829,0,17.8-5.254,17.983-11.778C54.63,8.727,44.477,1,32,1Z" style="fill:#d9e6ec"/><path d="M32,57c4.97,0,9,0,9-2v1.44a3.693,3.693,0,0,1-3.03,3.41,4.776,4.776,0,0,1-1.21.15H27.24a4.776,4.776,0,0,1-1.21-.15A3.693,3.693,0,0,1,23,56.44V55C23,57,27.03,57,32,57Z" style="fill:#77848c"/><path d="M36.76,60a4.776,4.776,0,0,0,1.21-.15L38,60v1a2.006,2.006,0,0,1-2,2H28a2.006,2.006,0,0,1-2-2V60l.03-.15a4.776,4.776,0,0,0,1.21.15Z" style="fill:#2e3b41"/><path d="M23.03,51.91C24.2,52.44,26.69,53,32,53c5,0,7.5-.5,8.75-1H41v3c0,2-4.03,2-9,2s-9,0-9-2V52Z" style="fill:#a2adb3"/><path d="M38,60l-.03-.15a4.776,4.776,0,0,1-1.21.15H27.24a4.776,4.776,0,0,1-1.21-.15L26,60v1a1.96,1.96,0,0,0,.239.925A2,2,0,0,1,28,60.85h8a2,2,0,0,1,1.761,1.075A1.96,1.96,0,0,0,38,61Z" style="fill:#222c30"/><path d="M27,58V56.9c-2.411-.174-4-.641-4-1.9v1.44a3.693,3.693,0,0,0,3.03,3.41,4.776,4.776,0,0,0,1.21.15H29A2,2,0,0,1,27,58Z" style="fill:#9ea9af"/><path d="M37,56.9V58a2,2,0,0,1-2,2h1.76a4.776,4.776,0,0,0,1.21-.15A3.693,3.693,0,0,0,41,56.44V55C41,56.255,39.411,56.722,37,56.9Z" style="fill:#9ea9af"/><path d="M27,56.9V52.78a13.3,13.3,0,0,1-3.97-.87L23,52v3C23,56.255,24.589,56.722,27,56.9Z" style="fill:#bec5cd"/><path d="M40.75,52a14.451,14.451,0,0,1-3.75.778V56.9c2.411-.174,4-.641,4-1.9V52Z" style="fill:#bec5cd"/><path d="M37,58V56.9c-.616.045-1.289.069-2,.084V60A2,2,0,0,0,37,58Z" style="fill:#bec5cd"/><path d="M35,56.98c.711-.015,1.384-.039,2-.084h0V52.778h0c-.593.062-1.258.113-2,.151Z" style="fill:#dce4ed"/><path d="M40,57.143v-.837c-.033.015-.06.033-.094.047l-.015,0a4.607,4.607,0,0,1-.518.177c-.055.015-.116.029-.173.044-.146.037-.3.071-.458.1l-.209.038q-.257.043-.533.078V59.84a4.4,4.4,0,0,0,1.738-.869A1.977,1.977,0,0,0,40,58Z" style="fill:#bec5cd"/><path d="M39.693,52.333c-.121.03-.248.06-.382.09l-.027.006c-.374.081-.8.158-1.284.227V56.8c.184-.024.362-.049.533-.078l.209-.038c.16-.031.312-.065.458-.1.058-.015.118-.029.173-.044a4.607,4.607,0,0,0,.518-.177l.015,0c.035-.015.06-.035.094-.05V52.251l-.233.063Z" style="fill:#dce4ed"/><path d="M35,56.98c-.638.013-1.3.018-2,.019v3h2V56.98Z" style="fill:#9ea9af"/><path d="M35,56.98V52.929c-.613.031-1.275.053-2,.063V57C33.7,57,34.362,56.993,35,56.98Z" style="fill:#bec5cd"/><path d="M12.02,22.712c.336-2.586,2.689-16.911,13.8-18.689a2,2,0,0,1,1.976,2.9c-2.314,4.953-6.678,14.851-7.848,21.4a1.9,1.9,0,0,1-2.941,1.338c-1.91-1.318-4.27-3.437-4.955-6.185A2.077,2.077,0,0,1,12.02,22.712Z" style="fill:#ebf9ff"/><path d="M48,19v6H44.64a13.223,13.223,0,0,1-1.58,3.81l2.38,2.38-4.25,4.24-2.38-2.37A13.223,13.223,0,0,1,35,34.64V38H29V34.64a13.223,13.223,0,0,1-3.81-1.58l-2.38,2.37-4.25-4.24,2.38-2.38A13.223,13.223,0,0,1,19.36,25H16V19h3.36a13.223,13.223,0,0,1,1.58-3.81l-2.38-2.38,4.25-4.25,2.38,2.38A13.223,13.223,0,0,1,29,9.36V6h6V9.36a13.223,13.223,0,0,1,3.81,1.58l2.38-2.38,4.25,4.25-2.38,2.38A13.223,13.223,0,0,1,44.64,19Zm-8,3a8,8,0,1,0-8,8A8,8,0,0,0,40,22Z" style="fill:#77848c"/><path d="M32,0C17.645,0,8,9.645,8,24c0,.475.126,11.719,11.111,19.892a2.961,2.961,0,0,1,1.142,1.949L21,51.092a1.828,1.828,0,0,0,1,1.4v3.952a4.555,4.555,0,0,0,3,4.1V61a3,3,0,0,0,3,3h8a3,3,0,0,0,3-3v-.453a4.555,4.555,0,0,0,3-4.1V52.492a1.834,1.834,0,0,0,1-1.4l.75-5.25a2.961,2.961,0,0,1,1.142-1.949C55.874,35.719,56,24.475,56,24,56,9.645,46.355,0,32,0Zm5,61a1,1,0,0,1-1,1H28a1,1,0,0,1-1-1v-.021c.08,0,.155.021.235.021h9.53c.08,0,.155-.018.235-.021Zm-.235-2h-9.53a3.351,3.351,0,0,1-2.959-1.531C26.1,58,28.865,58,32,58s5.9,0,7.724-.531A3.351,3.351,0,0,1,36.765,59Zm7.3-17H40v2h2.283a4.962,4.962,0,0,0-.515,1.558l-.738,5.157C40.758,50.948,39.129,52,32,52v2a33.7,33.7,0,0,0,8-.715V55c0,1-5.008,1-8,1s-8,0-8-1V53.287a17.2,17.2,0,0,0,1.858.36l.284-1.98c-2.291-.327-3-.8-3.172-.951l-.738-5.157A4.959,4.959,0,0,0,21.717,44H38V42H19.935A24.884,24.884,0,0,1,10,24C10,10.636,18.636,2,32,2s22,8.636,22,22A24.883,24.883,0,0,1,44.065,42Z"/><path d="M27.926,53.865q.924.069,2.043.1l.062-2c-.716-.022-1.366-.056-1.957-.1Z"/><path d="M48,18H45.406a13.893,13.893,0,0,0-1.1-2.649l1.836-1.836a1,1,0,0,0,0-1.414L41.9,7.858a1,1,0,0,0-1.414,0L38.649,9.694A13.893,13.893,0,0,0,36,8.594V6a1,1,0,0,0-1-1H29a1,1,0,0,0-1,1V8.594a13.893,13.893,0,0,0-2.649,1.1L23.515,7.858a1,1,0,0,0-1.414,0L17.858,12.1a1,1,0,0,0,0,1.414l1.836,1.836A13.893,13.893,0,0,0,18.594,18H16a1,1,0,0,0-1,1v6a1,1,0,0,0,1,1h2.594a13.893,13.893,0,0,0,1.1,2.649l-1.836,1.836a1,1,0,0,0,0,1.414L22.1,36.142a1,1,0,0,0,1.414,0l1.836-1.836A13.893,13.893,0,0,0,28,35.406V38a1,1,0,0,0,1,1h6a1,1,0,0,0,1-1V35.406a13.893,13.893,0,0,0,2.649-1.1l1.836,1.836a1,1,0,0,0,1.414,0L46.142,31.9a1,1,0,0,0,0-1.414l-1.836-1.836A13.893,13.893,0,0,0,45.406,26H48a1,1,0,0,0,1-1V19A1,1,0,0,0,48,18Zm-1,6H44.638a1,1,0,0,0-.973.77,11.885,11.885,0,0,1-1.46,3.518,1,1,0,0,0,.144,1.233l1.672,1.671-2.829,2.829-1.671-1.672a1,1,0,0,0-1.233-.144,11.885,11.885,0,0,1-3.518,1.46,1,1,0,0,0-.77.973V37H30V34.638a1,1,0,0,0-.77-.973,11.885,11.885,0,0,1-3.518-1.46,1,1,0,0,0-1.233.144l-1.671,1.672-2.829-2.829,1.672-1.671a1,1,0,0,0,.144-1.233,11.885,11.885,0,0,1-1.46-3.518,1,1,0,0,0-.973-.77H17V20h2.362a1,1,0,0,0,.973-.77,11.885,11.885,0,0,1,1.46-3.518,1,1,0,0,0-.144-1.233l-1.672-1.671,2.829-2.829,1.671,1.672a1,1,0,0,0,1.233.144,11.885,11.885,0,0,1,3.518-1.46A1,1,0,0,0,30,9.362V7h4V9.362a1,1,0,0,0,.77.973,11.885,11.885,0,0,1,3.518,1.46,1,1,0,0,0,1.233-.144l1.671-1.672,2.829,2.829-1.672,1.671a1,1,0,0,0-.144,1.233,11.885,11.885,0,0,1,1.46,3.518,1,1,0,0,0,.973.77H47Z"/><path d="M32,13a9,9,0,1,0,9,9A9.011,9.011,0,0,0,32,13Zm0,16a7,7,0,1,1,7-7A7.008,7.008,0,0,1,32,29Z"/></g></svg>